<?xml version="1.0" standalone="no"?>
<!DOCTYPE svg PUBLIC "-//W3C//DTD SVG 20010904//EN"
 "http://www.w3.org/TR/2001/REC-SVG-20010904/DTD/svg10.dtd">
<svg version="1.0" xmlns="http://www.w3.org/2000/svg"
 width="500.000000pt" height="500.000000pt" viewBox="0 0 500.000000 500.000000"
 preserveAspectRatio="xMidYMid meet">
<metadata>
Created by potrace 1.14, written by Peter Selinger 2001-2017
</metadata>
<g transform="translate(0.000000,500.000000) scale(0.100000,-0.100000)"
fill="#000000" stroke="none">
<path d="M4378 4304 c-2 -53 0 -101 4 -107 9 -15 187 -17 202 -2 10 10 14 120
7 193 -1 9 -29 12 -105 12 l-105 0 -3 -96z"/>
<path d="M973 3064 l2 -1157 135 -61 c141 -65 270 -133 379 -198 34 -21 65
-38 68 -38 7 0 311 -204 368 -247 48 -37 49 -37 27 -8 -58 74 -297 321 -447
460 -51 47 -270 226 -315 258 l-25 17 0 951 c0 523 3 955 6 960 12 20 238 -65
439 -164 69 -34 186 -103 262 -153 75 -50 132 -84 126 -75 -15 22 -150 140
-250 217 -46 35 -88 68 -93 72 -38 30 -246 150 -335 193 -76 37 -277 114 -319
124 l-29 6 1 -1157z"/>
<path d="M3260 4194 c-41 -14 -99 -36 -128 -50 -29 -13 -55 -24 -58 -24 -14 0
-213 -106 -294 -156 -79 -49 -236 -159 -266 -188 -7 -6 -35 -31 -64 -56 -62
-53 -130 -119 -130 -126 0 -3 28 15 63 41 79 58 251 162 344 209 140 70 418
174 431 161 9 -8 9 -1889 0 -1907 -4 -9 -36 -38 -71 -64 -205 -157 -438 -374
-634 -593 -46 -51 -82 -96 -79 -98 2 -3 33 18 68 45 166 130 526 343 769 454
74 33 137 65 140 71 4 5 7 527 8 1158 0 897 -2 1149 -12 1149 -7 0 -46 -12
-87 -26z"/>
<path d="M4690 4140 l-45 -5 -1 -65 c-5 -198 -3 -190 -55 -242 l-47 -47 -217
0 c-127 0 -222 -4 -229 -10 -13 -11 -16 -517 -3 -538 11 -17 532 -19 542 -2 4
5 7 109 7 229 l0 218 49 48 50 49 117 1 c64 1 123 2 130 3 19 2 17 350 -2 357
-18 7 -241 10 -296 4z"/>
<path d="M630 3801 c-3 -124 0 -2294 3 -2298 3 -2 56 -6 118 -8 63 -3 134 -7
159 -10 25 -3 72 -7 105 -11 253 -23 656 -131 893 -239 39 -19 72 -30 72 -26
0 8 -187 136 -260 178 -253 148 -582 262 -849 297 -24 3 -46 8 -49 10 -2 3 -5
481 -6 1063 l-1 1058 -92 1 c-80 2 -93 0 -93 -15z"/>
<path d="M3515 3812 c-3 -3 -5 -482 -5 -1064 0 -621 -4 -1058 -9 -1058 -33 0
-252 -43 -326 -65 -183 -52 -394 -139 -530 -217 -101 -59 -295 -189 -295 -198
0 -5 39 9 88 30 335 150 731 237 1152 255 47 2 91 4 98 4 9 1 12 240 12 1159
l0 1158 -90 1 c-50 0 -92 -3 -95 -5z"/>
<path d="M151 3458 c-55 -21 -104 -66 -132 -120 -19 -37 -19 -66 -17 -1052 l3
-1013 35 -52 c26 -38 49 -59 90 -79 l55 -27 824 -2 c548 -2 821 1 815 7 -6 6
-50 24 -100 41 -49 16 -98 34 -109 39 -42 19 -324 93 -395 104 -19 3 -78 12
-130 21 -52 8 -138 18 -190 21 -52 4 -108 8 -125 9 -16 2 -144 4 -282 4 l-253
1 0 935 0 935 125 0 126 0 -3 123 -3 122 -143 0 c-113 0 -153 -3 -191 -17z"/>
<path d="M4168 2982 l-78 -3 0 -809 0 -810 -262 -1 c-145 0 -276 -2 -293 -4
-16 -2 -71 -6 -121 -9 -127 -9 -313 -40 -475 -81 -142 -36 -415 -127 -432
-144 -7 -7 275 -9 814 -8 814 2 825 2 869 23 57 27 98 67 122 121 18 40 18 81
19 860 0 450 -1 828 -1 839 0 26 -34 31 -162 26z"/>
<path d="M1618 2892 c-24 -5 -24 -58 -1 -71 16 -8 18 -34 19 -260 2 -232 0
-252 -16 -264 -18 -13 -23 -27 -21 -60 1 -16 10 -17 84 -15 81 3 82 3 85 30 2
19 -3 30 -17 38 -19 10 -21 20 -21 130 0 107 2 120 18 121 71 5 185 4 194 -2
8 -5 13 -49 16 -123 l4 -115 -26 -7 c-21 -5 -26 -12 -26 -39 0 -30 3 -33 33
-36 17 -2 61 -2 97 1 62 5 65 6 68 32 3 22 -2 30 -22 38 -19 7 -26 17 -27 37
0 16 -2 130 -5 256 l-4 227 25 10 c19 7 25 17 25 40 0 17 -5 30 -12 31 -67 5
-151 3 -160 -2 -20 -13 -18 -43 6 -65 20 -19 23 -32 24 -108 0 -101 7 -97
-133 -93 l-90 2 -3 96 c-2 90 -1 97 18 102 21 5 26 32 11 56 -8 13 -103 22
-143 13z"/>
<path d="M2315 2890 c-34 -4 -40 -9 -43 -32 -2 -20 4 -31 22 -44 l26 -16 -5
-132 c-11 -258 -35 -348 -98 -364 l-32 -8 0 -70 0 -69 40 0 c36 0 40 3 45 30
l5 30 169 0 170 0 8 -31 c6 -23 15 -33 34 -37 40 -7 55 16 52 81 -3 55 -8 63
-50 76 -16 5 -18 24 -19 193 -1 103 -2 208 -3 233 -2 51 8 80 29 80 17 0 28
33 20 60 -7 22 2 21 -215 24 -63 1 -133 0 -155 -4z m226 -182 c2 -265 1 -390
-5 -395 -3 -4 -42 -8 -87 -9 -62 -2 -81 1 -86 12 -3 8 4 49 16 92 11 42 20 95
21 117 0 46 7 242 9 268 1 14 11 17 66 17 l65 0 1 -102z"/>
<path d="M2012 954 c-17 -12 -22 -25 -22 -59 l0 -44 -240 -3 -240 -3 -26 -26
c-32 -32 -43 -103 -24 -149 27 -65 9 -63 700 -64 670 0 672 0 705 50 18 28 20
99 2 134 -26 53 -61 60 -303 60 l-222 0 0 42 c-1 70 -19 78 -176 78 -103 0
-136 -3 -154 -16z"/>
</g>
</svg>
